<?xml version="1.0" encoding="utf-8"?>
<!-- Generator: Adobe Illustrator 22.1.0, SVG Export Plug-In . SVG Version: 6.00 Build 0)  -->
<svg version="1.1" id="Layer_1" xmlns="http://www.w3.org/2000/svg" xmlns:xlink="http://www.w3.org/1999/xlink" x="0px" y="0px"
	 viewBox="0 0 600 400" style="enable-background:new 0 0 600 400;" xml:space="preserve">
<style type="text/css">
	.st0{fill:url(#SVGID_1_);}
	.st1{opacity:0.6;fill:#B0BEC5;enable-background:new    ;}
	.st2{opacity:0.2;fill:#D0D8DC;enable-background:new    ;}
	.st3{fill:url(#SVGID_2_);}
	.st4{fill:#EF4137;}
	.st5{opacity:0.6;clip-path:url(#SVGID_3_);}
	.st6{opacity:0.6;fill:#FBCBBD;enable-background:new    ;}
	.st7{opacity:0.8;fill:#FBCBBD;enable-background:new    ;}
	.st8{fill:#FBCBBD;}
	.st9{opacity:0.2;}
	.st10{fill:#434343;}
	.st11{fill:url(#SVGID_4_);}
	.st12{fill:url(#SVGID_5_);}
	.st13{fill:#CB2027;}
	.st14{opacity:0.6;clip-path:url(#SVGID_6_);}
	.st15{opacity:0.6;fill:#A31E22;enable-background:new    ;}
	.st16{opacity:0.6;}
	.st17{opacity:0.8;fill:#A31E22;enable-background:new    ;}
	.st18{fill:#C82026;}
</style>
<g>
	
		<linearGradient id="SVGID_1_" gradientUnits="userSpaceOnUse" x1="176.3356" y1="229.1409" x2="176.3356" y2="157.8465" gradientTransform="matrix(1.0244 -0.2537 -5.840000e-02 -0.9617 17.3241 405.0984)">
		<stop  offset="0.1001" style="stop-color:#F5F5F5"/>
		<stop  offset="1" style="stop-color:#D0D8DC"/>
	</linearGradient>
	<path class="st0" d="M112.2,156.1c0,0-0.4,28.8,21.4,33.9c21.8,5,53.1,15.3,62.7,17.1c16.4,3.1,49.4,6.7,58.1-6.5
		c16.3-24.6-2-54.8-32.3-60.7s-85.6-2.3-98.1,5.2S112.2,156.1,112.2,156.1z"/>
	<ellipse transform="matrix(0.4884 -0.8726 0.8726 0.4884 -62.9325 283.7251)" class="st1" cx="210.5" cy="195.5" rx="7.5" ry="4"/>
	<ellipse transform="matrix(0.8818 -0.4716 0.4716 0.8818 -63.2134 111.8487)" class="st2" cx="191.5" cy="182" rx="7.8" ry="3.8"/>
	
		<ellipse transform="matrix(0.8984 -0.4392 0.4392 0.8984 -66.1912 94.4047)" class="st2" cx="170.9" cy="190.3" rx="7.8" ry="3.8"/>
	<ellipse transform="matrix(0.8984 -0.4392 0.4392 0.8984 -65.3126 103.35)" class="st1" cx="190.7" cy="192.8" rx="7.8" ry="3.8"/>
	
		<ellipse transform="matrix(0.6785 -0.7346 0.7346 0.6785 -88.1655 172.1719)" class="st2" cx="152.6" cy="186.8" rx="7.8" ry="3.8"/>
	
		<ellipse transform="matrix(0.6785 -0.7346 0.7346 0.6785 -82.2325 143.4061)" class="st2" cx="122.7" cy="165.7" rx="7.8" ry="3.8"/>
	<ellipse transform="matrix(0.9749 -0.2226 0.2226 0.9749 -36.5434 33.5357)" class="st2" cx="130.5" cy="178.9" rx="7.5" ry="4"/>
	
		<ellipse transform="matrix(0.7958 -0.6055 0.6055 0.7958 -68.1118 119.549)" class="st2" cx="143.2" cy="160.8" rx="7.9" ry="3.8"/>
	<ellipse transform="matrix(0.834 -0.5518 0.5518 0.834 -62.1455 122.999)" class="st2" cx="173.3" cy="164.8" rx="4.7" ry="6.4"/>
	<ellipse transform="matrix(0.9102 -0.4143 0.4143 0.9102 -58.1253 77.9574)" class="st2" cx="150.7" cy="173" rx="7.8" ry="3.9"/>
	
		<ellipse transform="matrix(0.9903 -0.1389 0.1389 0.9903 -22.2405 26.0875)" class="st2" cx="175.8" cy="172.4" rx="7.4" ry="4.1"/>
	
		<linearGradient id="SVGID_2_" gradientUnits="userSpaceOnUse" x1="133.3669" y1="259.4386" x2="255.3616" y2="159.5302" gradientTransform="matrix(1.026 -0.2037 -5.377700e-03 -0.9736 0.2115 405.9733)">
		<stop  offset="0.2588" style="stop-color:#F4805C"/>
		<stop  offset="1" style="stop-color:#F05323"/>
	</linearGradient>
	<path class="st3" d="M280.1,193.5c0,0-13.1-13.8-21.7-29.7c-8.6-15.9-46.3-59.2-110.4-41.5c-23.2,6.4-32.5,14.4-38,20.2
		c-3.6,3.8-6,8-7,11.6c19.4-10.5,39.3-6.1,56.1,2c33.8,16.3,66.2,36.3,104.7,43.2C275.4,197.6,280.1,193.5,280.1,193.5z"/>
	<path class="st4" d="M102.9,154.1c-1.5,5.5,0.4,9.6,7.1,8.5c11.1-1.9,18.5-9.9,34.9-4.8c16.3,5.1,58.5,34.2,86.6,39.7
		c14.1,2.8,24.6,2.7,32.2,1.7c-66.2-17.7-68-29.1-103.1-45.6C141.9,145,113.7,145.8,102.9,154.1z"/>
	<g>
		<defs>
			<path id="SVGID_11_" d="M258.4,164.3c-8.6-15.9-46.3-59.2-110.4-41.5c-23.2,6.4-32.5,14.4-38,20.2c-3.6,3.8-6,8-7,11.6
				c-1.5,5.5,0.4,9.6,7.1,8.5c11.1-1.9,18.5-9.9,34.9-4.8c16.3,5.1,58.5,34.2,86.6,39.7c14.1,2.8,24.6,2.7,32.2,1.7
				c11.7-1.7,16.4-5.8,16.4-5.8S267,180.2,258.4,164.3L258.4,164.3z"/>
		</defs>
		<clipPath id="SVGID_3_">
			<use xlink:href="#SVGID_11_"  style="overflow:visible;"/>
		</clipPath>
		<g class="st5">
			<path class="st6" d="M123.9,158.5c1.1,1.2,2.5-0.9,1.7-1.9c-4.6-5.2-4-10.7-0.8-15.5c-0.6-0.8-1.1-1.7-1.5-2.8
				C118.2,145.1,119.4,153.4,123.9,158.5z"/>
			<path class="st6" d="M158.5,118.3c1.1-1-0.2-3-1.5-1.8c-4.4,4.2-9.7,6.7-15,9c2.3-0.2,4.6-0.3,6.8-0.5
				C152.2,123.3,155.4,121.3,158.5,118.3z"/>
			<path class="st6" d="M140.4,128.8c3-1.3,5.8-2.5,8.4-3.8c-2.3,0.2-4.6,0.3-6.8,0.5c-6.8,3.1-13.7,6.1-18.6,12.6
				c0,0.1-0.1,0.1-0.1,0.2c0.4,1,0.9,2,1.5,2.8C128.1,136,134.3,131.5,140.4,128.8z"/>
			<path class="st6" d="M170.4,133.9c8.8-3.5,16.7-6.8,24.2-12.4c-1.5-0.1-2.9-0.1-4.4-0.2c-5,3.4-10.3,6-16,8.2
				c-4.4,1.7-10,1.6-14,4.4c-3.6,2.6-5.2,7.5-6.6,11.1c1,0.3,1.9,0.6,2.9,0.9c0.2-0.6,0.4-1.1,0.7-1.7
				C160.1,138.5,164.7,136.2,170.4,133.9z"/>
			<path class="st6" d="M152.4,163.3c0.2,1.5,3.1,1.6,2.9-0.3c-0.8-5.5-1.1-11.3,1.2-17.1c-1-0.3-1.9-0.6-2.9-0.9
				C151.4,151.1,151.6,157.9,152.4,163.3z"/>
			<path class="st6" d="M198.7,118.2c1.3-1.2-0.9-2.9-2.3-1.7c-2,1.8-4.1,3.4-6.2,4.8c1.5,0,2.9,0.1,4.4,0.2
				C196,120.4,197.3,119.3,198.7,118.2z"/>
			<path class="st7" d="M171.4,177.6c-0.8,0.7-0.4,3.5,0.3,2.9c3.5-3.3,6.2-6.7,6.9-11.2c0.3-1.6,0.1-3.2,0-4.7
				c-0.6-0.1-1.2-0.1-1.7,0C177,168.8,176.8,172.6,171.4,177.6z"/>
			<path class="st6" d="M221.3,129c0.8-0.7,0.4-3.5-0.3-2.9c-2.1,2-4.3,3.5-6.5,4.6c1.1,0.3,2.2,0.7,3.3,1.1
				C219,131,220.2,130.1,221.3,129z"/>
			<path class="st6" d="M177.1,157.1c-0.5,2.8-0.3,5.2-0.2,7.5c0.5-0.1,1.1-0.1,1.7,0c0-0.1,0-0.1,0-0.2c-0.1-2.7,0-5.3,0.5-7.8
				c-0.6,0-1.2-0.1-1.8-0.2C177.2,156.6,177.1,156.8,177.1,157.1z"/>
			<path class="st6" d="M186.6,144.6c9.4-7.9,21.3-6,31.3-12.7c-1.1-0.4-2.2-0.7-3.3-1.1c-9.3,4.7-23.3,4.5-31.8,11.6
				c-4.8,4-4.4,8.5-5.5,14c0.6,0.1,1.2,0.1,1.8,0.2C180,152.3,182.1,148.3,186.6,144.6z"/>
			<path class="st6" d="M205.8,173.2c1,0,2,0,3,0.1c-1-3.1-0.5-6.2,1.6-9.6c-1.2,0.1-2.3,0.1-3.4,0.2
				C205.3,167.3,204.9,170.3,205.8,173.2z"/>
			<path class="st6" d="M211.9,161.6c4.3-5.5,10.5-6.2,16.4-8.2c3.8-1.3,7.2-3,10.5-5.1c-0.9-0.7-1.7-1.3-2.6-1.9
				c-4.7,2.8-9.6,4.7-15.2,6.5c-5.6,1.8-9.5,3.6-12.8,8.9c-0.4,0.7-0.8,1.3-1.1,2c1.1-0.1,2.3-0.1,3.4-0.2
				C210.8,163,211.3,162.3,211.9,161.6z"/>
			<path class="st6" d="M247.8,141.1c0.9-0.9-1.4-2.8-2.4-1.8c-3.1,3-6.1,5.3-9.2,7.2c0.9,0.6,1.8,1.3,2.6,1.9
				C241.9,146.3,244.9,143.9,247.8,141.1z"/>
			<path class="st7" d="M211.2,178.4c-0.2-1.2-0.9-1.8-1.4-2.8c-0.4-0.7-0.7-1.5-1-2.2c-1-0.1-2-0.1-3-0.1c0.3,0.8,0.6,1.6,1,2.4
				c3.5,5.9-3.6,9.4-2.7,15.4c0.2,1,2.9,2.2,2.7,0.8C206.2,187.4,212,183,211.2,178.4z"/>
			<path class="st7" d="M231.6,179.5c-0.3,8.1,7.5,11.9-1.2,20.8c-0.7,0.7,1.4,2.7,2.2,1.9c5.1-5.2,5.4-9.5,3.6-15
				c-1.1-3.5-1.6-6.2-0.5-9.3c-1.2-0.3-2.4-0.6-3.5-0.9C231.8,177.8,231.6,178.6,231.6,179.5z"/>
			<path class="st8" d="M262.7,154.3c-0.5-0.8-3-1.7-2,0c4.9,8.1-6.1,7.4-11.4,8.6c-5.1,1.1-8.4,2.5-11.9,6.6
				c-2,2.4-4.2,4.9-5.2,7.5c1.2,0.2,2.3,0.5,3.5,0.9c0.4-1.2,1-2.4,1.8-3.7c2.2-3.5,4.7-6.1,8.6-7.7
				C254,163.1,269.5,165.5,262.7,154.3z"/>
		</g>
	</g>
	<g class="st9">
		<path class="st10" d="M177.9,122.9c43.9,0,70.2,31.1,76.7,43.2c6,11.1,14,21.1,18.6,26.5c-2.2,0.9-5.5,1.9-9.8,2.5
			c-2.6,0.4-5.5,0.6-8.6,0.6c-1.6,0-3.1,0.8-3.9,2.2c0,0.1-0.1,0.1-0.1,0.2c-3.1,4.7-12.1,7.2-25.3,7.2c-11.3,0-22.3-1.8-27.9-2.9
			c-4.2-0.8-13.1-3.4-23.5-6.4c-12.7-3.7-27.1-7.9-39-10.6c-6.5-1.5-14.9-6.8-17.2-23.5c-0.2-1.4-1-2.5-2.1-3.3
			c-0.8-0.5-1.7-0.8-2.6-0.8c-0.4,0-0.8,0-1.2,0.2c-0.9,0.2-1.6,0.4-2.2,0.5c-0.5,0.1-0.9,0.1-1.3,0.1c-0.3,0-0.6,0-0.7-0.1
			c0-0.1-0.1-0.4,0-0.8v-0.3c0-0.6,0.1-1.3,0.3-2.1c0.8-3,3-6.5,5.9-9.6c5.4-5.7,14.4-13,35.8-18.9
			C159.3,124.2,168.8,122.9,177.9,122.9 M177.9,118.1c-9.1,0-19,1.3-29.5,4.2c-23.2,6.4-32.5,14.4-38,20.2c-3.6,3.8-6,8-7,11.6
			c-0.3,1.2-0.5,2.4-0.5,3.4c-0.1,3.4,1.6,5.8,5.5,5.8c0.6,0,1.3-0.1,2.1-0.2c0.9-0.2,1.8-0.3,2.6-0.6c1.3,8.8,5.6,23.9,20.9,27.4
			c21.8,5,53.1,15.2,62.7,17.1c7.5,1.4,18.3,2.9,28.8,2.9c12.6,0,24.6-2.2,29.3-9.4c0-0.1,0.1-0.1,0.1-0.2c3.5,0,6.5-0.3,9.2-0.7
			c11.7-1.7,16.4-5.8,16.4-5.8s-0.1-0.1-0.3-0.3c0.2-0.1,0.3-0.2,0.3-0.2s-13.1-13.8-21.7-29.7C251.6,150.5,224.1,118.1,177.9,118.1
			z"/>
	</g>
	
		<linearGradient id="SVGID_4_" gradientUnits="userSpaceOnUse" x1="157.6325" y1="159.3069" x2="157.6325" y2="88.0093" gradientTransform="matrix(1.0244 -0.2537 -5.840000e-02 -0.9617 17.3241 405.0984)">
		<stop  offset="0.1001" style="stop-color:#F5F5F5"/>
		<stop  offset="1" style="stop-color:#D0D8DC"/>
	</linearGradient>
	<path class="st11" d="M97.1,228c0,0-0.4,28.8,21.4,33.9c21.8,5,53.1,15.2,62.7,17.1c16.4,3.1,49.4,6.7,58.1-6.5
		c16.3-24.6-2-54.8-32.3-60.7s-85.6-2.3-98.1,5.2C96.2,224.6,97.1,228,97.1,228z"/>
	
		<ellipse transform="matrix(0.4884 -0.8726 0.8726 0.4884 -133.3969 307.3474)" class="st1" cx="195.4" cy="267.4" rx="7.5" ry="4"/>
	<ellipse transform="matrix(0.9651 -0.262 0.262 0.9651 -62.7268 65.9814)" class="st1" cx="216.1" cy="268.2" rx="7.5" ry="4"/>
	
		<ellipse transform="matrix(0.8818 -0.4716 0.4716 0.8818 -98.9067 113.2335)" class="st2" cx="176.5" cy="253.9" rx="7.8" ry="3.8"/>
	
		<ellipse transform="matrix(0.8984 -0.4392 0.4392 0.8984 -99.3044 95.0864)" class="st2" cx="155.8" cy="262.2" rx="7.8" ry="3.8"/>
	
		<ellipse transform="matrix(0.8984 -0.4392 0.4392 0.8984 -98.4258 104.0317)" class="st1" cx="175.6" cy="264.7" rx="7.8" ry="3.8"/>
	
		<ellipse transform="matrix(0.6785 -0.7346 0.7346 0.6785 -145.8344 184.2107)" class="st2" cx="137.5" cy="258.7" rx="7.8" ry="3.8"/>
	
		<ellipse transform="matrix(0.6785 -0.7346 0.7346 0.6785 -139.9009 155.4461)" class="st2" cx="107.6" cy="237.6" rx="7.8" ry="3.8"/>
	<ellipse transform="matrix(0.9749 -0.2226 0.2226 0.9749 -52.9278 31.9829)" class="st2" cx="115.4" cy="250.8" rx="7.5" ry="4"/>
	
		<ellipse transform="matrix(0.7958 -0.6055 0.6055 0.7958 -114.7291 125.0967)" class="st2" cx="128.1" cy="232.7" rx="7.9" ry="3.8"/>
	
		<ellipse transform="matrix(0.834 -0.5518 0.5518 0.834 -104.3259 126.6167)" class="st2" cx="158.3" cy="236.7" rx="4.7" ry="6.4"/>
	
		<ellipse transform="matrix(0.9102 -0.4143 0.4143 0.9102 -89.2757 78.1745)" class="st2" cx="135.6" cy="244.9" rx="7.8" ry="3.9"/>
	
		<ellipse transform="matrix(0.9903 -0.1389 0.1389 0.9903 -32.3742 24.6902)" class="st2" cx="160.7" cy="244.3" rx="7.4" ry="4.1"/>
	
		<linearGradient id="SVGID_5_" gradientUnits="userSpaceOnUse" x1="118.2911" y1="188.7203" x2="240.289" y2="88.8102" gradientTransform="matrix(1.026 -0.2037 -5.377700e-03 -0.9736 0.2115 405.9733)">
		<stop  offset="0.2588" style="stop-color:#F05454"/>
		<stop  offset="1" style="stop-color:#ED1C24"/>
	</linearGradient>
	<path class="st12" d="M265,265.4c0,0-13.1-13.8-21.7-29.7c-8.6-15.9-46.3-59.2-110.4-41.5c-23.2,6.4-32.5,14.4-38,20.2
		c-3.6,3.8-6,8-7,11.6c19.4-10.5,39.3-6.1,56.1,2c33.8,16.3,66.2,36.3,104.7,43.2C260.3,269.5,265,265.4,265,265.4L265,265.4z"/>
	<path class="st13" d="M87.8,226c-1.5,5.5,0.4,9.6,7.1,8.5c11.1-1.9,18.4-9.2,34.7-4.1c16.3,5.1,58.7,33.5,86.8,39.1
		c14.1,2.8,24.6,2.7,32.2,1.7c-66.1-17.7-68-29.1-103.1-45.5C126.9,216.9,98.7,217.7,87.8,226z"/>
	<g>
		<defs>
			<path id="SVGID_15_" d="M243.3,236.2c-8.6-15.9-46.3-59.2-110.4-41.5c-23.2,6.4-32.5,14.4-38,20.2c-3.6,3.8-6,8-7,11.6
				c-1.5,5.5,0.4,9.6,7.1,8.5c11.1-1.9,18.5-9.9,34.9-4.8c16.3,5.1,59.3,33.9,87.4,39.5c14.1,2.8,23.8,3,31.4,2
				c11.7-1.7,16.4-5.8,16.4-5.8S251.9,252.1,243.3,236.2z"/>
		</defs>
		<clipPath id="SVGID_6_">
			<use xlink:href="#SVGID_15_"  style="overflow:visible;"/>
		</clipPath>
		<g class="st14">
			<path class="st15" d="M108.8,230.4c0.4,0,2.5-0.9,1.7-1.9c-4.6-5.2-4-10.7-0.8-15.5c-0.6-0.8-1.1-1.7-1.5-2.8
				C103.1,217,102.1,231.2,108.8,230.4z"/>
			<path class="st15" d="M143.4,190.2c1.1-1-0.2-3-1.5-1.8c-4.4,4.2-9.7,6.7-15,9c2.3-0.2,4.6-0.3,6.8-0.5
				C137.1,195.2,140.3,193.2,143.4,190.2z"/>
			<path class="st15" d="M125.3,200.7c3-1.3,5.8-2.5,8.4-3.8c-2.3,0.2-4.6,0.3-6.8,0.5c-6.8,3.1-13.7,6.1-18.6,12.6
				c0,0.1-0.1,0.1-0.1,0.2c0.4,1,0.9,2,1.5,2.8C113,207.9,119.2,203.4,125.3,200.7z"/>
			<path class="st15" d="M155.3,205.8c8.8-3.5,16.7-6.8,24.2-12.4c-1.5-0.1-2.9-0.1-4.4-0.2c-5,3.4-10.3,6-16,8.2
				c-4.4,1.7-10,1.6-14,4.4c-3.6,2.6-5.2,7.5-6.6,11.1c1,0.3,1.9,0.6,2.9,0.9c0.2-0.6,0.4-1.1,0.7-1.7
				C145,210.4,149.6,208.1,155.3,205.8z"/>
			<path class="st15" d="M137.4,235.3c0.2,1.5,3.1,1.6,2.9-0.3c-0.8-5.5-1.1-11.3,1.2-17.1c-1-0.3-1.9-0.6-2.9-0.9
				C136.3,223,136.5,229.8,137.4,235.3z"/>
			<path class="st15" d="M183.6,190.1c1.3-1.2-0.9-2.9-2.3-1.7c-2,1.8-4.1,3.4-6.2,4.8c1.5,0,2.9,0.1,4.4,0.2
				C180.9,192.3,182.2,191.3,183.6,190.1z"/>
			<path class="st15" d="M156.3,249.5c-0.8,0.7-0.4,3.5,0.3,2.9c3.5-3.3,6.2-6.7,6.9-11.2c0.3-1.6,0.1-3.2,0-4.7
				c-0.6-0.1-1.2-0.1-1.7,0C161.9,240.7,161.7,244.5,156.3,249.5z"/>
			<path class="st15" d="M206.3,200.9c0.8-0.7,0.4-3.5-0.3-2.9c-2.1,2-4.3,3.5-6.5,4.6c1.1,0.3,2.2,0.7,3.3,1.1
				C203.9,202.9,205.1,202,206.3,200.9z"/>
			<path class="st15" d="M162,229c-0.5,2.8-0.3,5.2-0.2,7.5c0.5-0.1,1.1-0.1,1.7,0c0-0.1,0-0.1,0-0.2c-0.1-2.7,0-5.3,0.5-7.8
				c-0.6,0-1.2-0.1-1.8-0.2C162.1,228.5,162.1,228.8,162,229z"/>
			<path class="st15" d="M171.5,216.5c9.4-7.9,21.3-6,31.3-12.7c-1.1-0.4-2.2-0.7-3.3-1.1c-9.3,4.7-23.3,4.5-31.8,11.6
				c-4.8,4-4.4,8.5-5.5,14c0.6,0.1,1.2,0.1,1.8,0.2C164.9,224.2,167,220.2,171.5,216.5z"/>
			<g class="st16">
				<path class="st15" d="M190.7,245.1c1,0,2,0,3,0.1c-1-3.1-0.5-6.2,1.6-9.6c-1.2,0.1-2.3,0.1-3.4,0.2
					C190.2,239.2,189.8,242.2,190.7,245.1z"/>
				<path class="st15" d="M196.8,233.5c4.3-5.5,10.5-6.2,16.4-8.2c3.8-1.3,7.2-3,10.5-5.1c-0.9-0.7-1.7-1.3-2.6-1.9
					c-4.7,2.8-9.6,4.7-15.2,6.5c-5.6,1.8-9.5,3.6-12.8,8.9c-0.4,0.7-0.8,1.3-1.1,2c1.1-0.1,2.3-0.1,3.4-0.2
					C195.8,234.9,196.2,234.2,196.8,233.5L196.8,233.5z"/>
				<path class="st15" d="M232.7,213c0.9-0.9-1.4-2.8-2.4-1.8c-3.1,3-6.1,5.3-9.2,7.2c0.9,0.6,1.8,1.3,2.6,1.9
					C226.8,218.2,229.8,215.8,232.7,213z"/>
				<path class="st17" d="M196.1,250.3c-0.2-1.2-0.9-1.8-1.4-2.8c-0.4-0.7-0.7-1.5-1-2.2c-1-0.1-2-0.1-3-0.1c0.3,0.8,0.6,1.6,1,2.4
					c3.5,5.9-3.6,9.4-2.7,15.4c0.2,1,2.9,2.2,2.7,0.8C191.1,259.3,196.9,254.9,196.1,250.3z"/>
			</g>
			<path class="st15" d="M216.5,251.4c-0.3,8.1,7.5,11.9-1.2,20.8c-0.7,0.7,1.4,2.7,2.2,1.9c5.1-5.2,5.4-9.5,3.6-15
				c-1.1-3.5-1.6-6.2-0.5-9.3c-1.2-0.3-2.4-0.6-3.5-0.9C216.7,249.7,216.5,250.5,216.5,251.4z"/>
			<path class="st15" d="M247.6,226.2c-0.5-0.8-3-1.7-2,0c4.9,8.1-6.1,7.4-11.4,8.6c-5.1,1.1-8.4,2.5-11.9,6.6
				c-2,2.4-4.2,4.9-5.2,7.5c1.2,0.2,2.3,0.5,3.5,0.9c0.4-1.2,1-2.4,1.8-3.7c2.2-3.5,4.7-6.1,8.6-7.7
				C239,235,254.4,237.4,247.6,226.2z"/>
		</g>
	</g>
	<g class="st9">
		<path class="st10" d="M162.4,194.3c43.9,0,70.2,31.1,76.7,43.2c6,11.1,14,21.1,18.6,26.5c-2.2,0.9-5.5,1.9-9.8,2.5
			c-2.6,0.4-5.3,0.5-8.2,0.5h-0.3h0c-1.6,0-3.1,0.8-4,2.2c0,0.1-0.1,0.2-0.2,0.3c-3.1,4.7-12.1,7.2-25.3,7.2
			c-11.3,0-22.3-1.8-27.9-2.8c-4.2-0.8-13.1-3.4-23.5-6.4c-12.7-3.7-27.1-7.9-39-10.6c-6.5-1.5-14.9-6.8-17.2-23.5
			c-0.2-1.4-1-2.5-2.1-3.3c-0.8-0.5-1.7-0.8-2.6-0.8c-0.4,0-0.8,0-1.2,0.2c-0.9,0.2-1.6,0.4-2.2,0.5c-0.5,0.1-0.9,0.1-1.3,0.1
			c-0.3,0-0.6,0-0.7-0.1c0-0.1-0.1-0.4,0-0.8v-0.3c0-0.6,0.1-1.3,0.3-2.1c0.8-3,3-6.5,5.9-9.6c5.4-5.7,14.4-13,35.8-18.9
			C143.8,195.6,153.3,194.3,162.4,194.3 M162.4,189.5c-9.1,0-19,1.3-29.5,4.2c-23.2,6.4-32.5,14.4-38,20.2c-3.6,3.8-6,8-7,11.6
			c-0.3,1.2-0.5,2.4-0.5,3.4c-0.1,3.4,1.6,5.8,5.5,5.8c0.6,0,1.3-0.1,2.1-0.2c0.9-0.2,1.8-0.3,2.6-0.6c1.3,8.8,5.6,23.9,20.9,27.4
			c21.8,5,53.1,15.2,62.7,17.1c7.5,1.4,18.3,2.9,28.8,2.9c12.6,0,24.6-2.2,29.3-9.4c0-0.1,0.1-0.2,0.1-0.2h0.3
			c3.3,0,6.2-0.2,8.9-0.6c11.7-1.7,16.4-5.8,16.4-5.8s-0.1-0.1-0.3-0.3c0.2-0.1,0.3-0.2,0.3-0.2s-13.1-13.8-21.7-29.7
			C236.1,221.8,208.7,189.5,162.4,189.5L162.4,189.5z"/>
	</g>
</g>
<g>
	<path class="st18" d="M379,184.2c2.4,0,4.3-0.6,5.7-2c1.4-1.3,2.2-3.1,2.2-5.3c0-1.8-0.6-3.2-1.9-4.2c-1.3-1-2.9-1.5-5-1.5
		c-2.3,0-4.2,0.7-5.7,2c-1.5,1.3-2.3,2.9-2.3,4.9c0,1.9,0.6,3.4,1.7,4.5C375,183.6,376.7,184.2,379,184.2z"/>
	<path class="st18" d="M438.3,184.2c2.4,0,4.3-0.6,5.7-2c1.4-1.3,2.2-3.1,2.2-5.3c0-1.8-0.6-3.2-1.9-4.2c-1.3-1-2.9-1.5-5-1.5
		c-2.3,0-4.2,0.7-5.7,2c-1.5,1.3-2.3,2.9-2.3,4.9c0,1.9,0.6,3.4,1.7,4.5C434.3,183.6,436,184.2,438.3,184.2z"/>
	<path class="st18" d="M496.2,189.7c-2.3,0-3.9,0.3-4.9,1c-1,0.7-1.8,1.9-2.2,3.6c-0.9,3.6-1.6,7.3-2.3,11.2
		c-1.5,1.2-2.8,1.8-3.9,1.8c-1.4,0-2.1-1-2.1-2.9c0-0.6,0.2-1.9,0.7-4.2c0.5-2.8,0.7-4.5,0.7-5.2c0-3.6-1.8-5.4-5.4-5.4
		c-1.8,0-3.8,0.6-6,1.9c-2.2,1.3-4.4,3.4-6.7,6.4c-2.3,3-4.3,6.9-6.1,11.6c0.2-2.4,0.5-4.5,0.8-6.1c0.3-1.7,0.8-3.6,1.3-5.8
		c0.8-3.1,1.2-5.1,1.2-6c0-0.8-0.2-1.3-0.7-1.6c-0.4-0.3-1.2-0.4-2.3-0.4c-2,0-3.6,0.4-4.8,1.1c-1.1,0.7-2,1.9-2.4,3.5
		c-1.9,6-2.9,12.4-3,19c-1.6,1.8-2.9,3.3-4,4.2c-1.5,1.4-2.7,2.1-3.7,2.1c-1.1,0-1.8-0.4-2.2-1.3c-0.4-0.9-0.7-2.2-0.7-3.8
		c0-2.2,0.7-6.3,2-12.4c1.1-5,1.6-8.2,1.6-9.6c0-1.9-1.4-2.8-4.2-2.8c-1.8,0-3.2,0.3-4,1c-0.8,0.7-1.5,1.9-2,3.7
		c-1,3.4-1.8,7-2.4,10.9c-0.4,2.5-0.7,4.7-0.8,6.6c-3.4,2.3-6.9,4.8-10.6,7.7c0.3-1.8,0.5-3.4,0.8-5c0.2-1.6,0.5-3,0.7-4.4
		c1.2-7,1.9-11.3,2.1-13c0.1-0.4,0.1-0.9,0.1-1.6c0-1.2-0.3-2-0.9-2.4s-1.6-0.6-2.9-0.6s-2.6,0.1-3.7,0.3c-0.3-1.2-0.6-2.1-1-2.5
		c-0.4-0.5-1.2-0.7-2.5-0.7c-3.8,0-7.4,1.2-10.8,3.6c-3.4,2.4-6.1,5.6-8.2,9.5c-2,3.8-3,7.8-3.1,12.1c-1.1,1.2-2,2.1-2.8,2.8
		c-1.5,1.4-2.7,2.1-3.7,2.1c-1.1,0-1.8-0.4-2.2-1.3c-0.4-0.9-0.7-2.2-0.7-3.8c0-2.2,0.7-6.3,2-12.4c1.1-5,1.6-8.2,1.6-9.6
		c0-1.9-1.4-2.8-4.2-2.8c-1.8,0-3.2,0.3-4,1c-0.8,0.7-1.5,1.9-2,3.7c-1,3.4-1.8,7-2.4,10.9c-0.5,3.3-0.8,6.1-0.9,8.4
		c-1.5,1.7-2.8,3.1-3.9,4c-1.5,1.4-2.8,2-3.9,2c-1.6,0-2.4-1.1-2.4-3.3c0-1.5,0.5-4.7,1.6-9.5c1.2-5.6,1.8-9.5,1.8-11.7
		c0-3.6-1.8-5.4-5.4-5.4c-1.8,0-3.8,0.6-6,1.9c-2.2,1.3-4.4,3.4-6.7,6.4c-2.3,3-4.3,6.9-6.1,11.6c0.2-2.4,0.5-4.5,0.8-6.1
		c0.3-1.7,0.8-3.6,1.3-5.8c0.8-3.1,1.2-5.1,1.2-6c0-0.8-0.2-1.3-0.7-1.6c-0.4-0.3-1.2-0.4-2.3-0.4c-2,0-3.6,0.4-4.8,1.1
		c-1.1,0.7-2,1.9-2.4,3.5c-2,6.5-3.1,13.3-3.1,20.5c0,4.9,0.4,8.4,1.3,10.6c0.9,2.2,2.3,3.3,4.4,3.3c1.7,0,3-0.5,3.8-1.4
		s1.5-2.7,2.1-5.3c0.8-3.4,1.9-6.6,3.3-9.6c1.4-3,2.7-5.5,4-7.3c1.3-1.9,2.3-2.8,3-2.8c0.6,0,0.9,0.4,0.9,1.3c0,1.3-0.4,3.7-1.1,7.2
		c-0.8,4-1.2,6.8-1.2,8.3c0,3.1,0.7,5.5,2.2,7.1c1.4,1.6,3.6,2.4,6.4,2.4c3.5,0,6.6-0.9,9.3-2.8c1.3-0.9,2.6-1.9,3.8-3.1
		c0.3,0.7,0.7,1.4,1.1,2.1c1.6,2.5,4.2,3.8,7.8,3.8c3.5,0,7.2-1.8,11.1-5.4c0.3,0.6,0.7,1.2,1.1,1.7c2,2.5,4.8,3.7,8.2,3.7
		c1.5,0,3-0.4,4.5-1.2c1.5-0.8,2.8-2,3.7-3.4l-0.5,3.2c-8.5,6.6-14.3,12.1-17.4,16.6c-3.1,4.5-4.6,8.7-4.6,12.7
		c0,2.8,0.9,5.1,2.7,6.9c1.8,1.7,4.1,2.6,6.9,2.6c5.3,0,9.6-3.3,13-9.8s6.2-15.6,8.3-27l5.3-3.6c1.7-1.2,4.2-2.9,7.4-5.1
		c0.4,1.7,1,3.1,1.8,4.4c1.6,2.5,4.2,3.8,7.8,3.8c3.5,0,7.2-1.8,11.1-5.4c0.2,0.8,0.4,1.5,0.6,2.1c0.9,2.2,2.3,3.3,4.4,3.3
		c1.7,0,3-0.5,3.8-1.4s1.5-2.7,2.1-5.3c0.8-3.4,1.9-6.6,3.2-9.6c1.3-3,2.7-5.5,4-7.3s2.4-2.8,3.3-2.8c0.6,0,0.9,0.4,0.9,1.3
		c0,0.4-0.1,1.1-0.2,2.2c-0.2,0.8-0.2,1.7-0.2,2.5c0,2.5,0.8,4.6,2.3,6.1c1.5,1.5,3.7,2.2,6.7,2.2c2,0,3.9-0.4,5.6-1.3
		c-0.2,2.1-0.5,4.3-0.7,6.5c-0.1,1.1-0.2,1.9-0.2,2.3c0,1.5,0.3,2.7,1,3.4s1.9,1.1,3.7,1.1c2,0,3.5-0.4,4.4-1.1s1.5-2,1.6-3.7
		c0.5-8,2-18,4.5-29.8c0.1-0.8,0.2-1.3,0.2-1.6C499.8,190.6,498.6,189.7,496.2,189.7z M399.6,253.1c-1.7,3.3-3.3,5-4.7,5
		c-0.8,0-1.4-0.3-1.8-0.9c-0.4-0.6-0.5-1.4-0.5-2.3c0-2.2,0.9-4.8,2.8-7.7c1.9-2.9,5-6.2,9.2-9.9C403,244.5,401.3,249.8,399.6,253.1
		z M407.9,211.4c-0.5,2.9-1.3,5.1-2.5,6.6c-1.2,1.6-2.4,2.3-3.7,2.3c-1.2,0-2.2-0.4-2.9-1.2c-0.7-0.8-1-2.1-1-3.8
		c0-3.1,0.6-6,1.7-8.8c1.2-2.8,2.7-5,4.7-6.7c1.9-1.7,4-2.6,6.3-2.6L407.9,211.4z"/>
	<path class="st18" d="M503.1,172.7c-1.3-1-2.9-1.5-5-1.5c-2.3,0-4.2,0.7-5.7,2c-1.5,1.3-2.3,2.9-2.3,4.9c0,1.9,0.6,3.4,1.7,4.5
		c1.2,1.1,2.9,1.6,5.2,1.6c2.4,0,4.3-0.6,5.7-2c1.4-1.3,2.2-3.1,2.2-5.3C505,175.1,504.4,173.7,503.1,172.7z"/>
</g>
</svg>
