<svg id="Layer_1" xmlns="http://www.w3.org/2000/svg" xmlns:xlink="http://www.w3.org/1999/xlink" viewBox="0 0 600 400">
  <style>
    .st1,.st2,.st6,.st7{opacity:.6;fill:#b0bec5;enable-background:new}.st2,.st6,.st7{opacity:.2;fill:#d0d8dc}.st6,.st7{opacity:.6;fill:#fbcbbd}.st7{opacity:.8}.st9{opacity:.2}.st10{fill:#434343}.st15{opacity:.6;fill:#a31e22;enable-background:new}.st18{fill:#bec9cf}.st19{fill:#c82026}
  </style>
  <linearGradient id="SVGID_1_" gradientUnits="userSpaceOnUse" x1="182.106" y1="227.619" x2="182.106" y2="156.324" gradientTransform="matrix(1.0244 -.2537 -.0584 -.9617 17.324 405.098)">
    <stop offset=".1" stop-color="#f5f5f5"/>
    <stop offset="1" stop-color="#d0d8dc"/>
  </linearGradient>
  <path d="M118.2 156.1s-.4 28.8 21.4 33.9c21.8 5 53.1 15.3 62.7 17.1 16.4 3.1 49.4 6.7 58.1-6.5 16.3-24.6-2-54.8-32.3-60.7s-85.6-2.3-98.1 5.2-11.8 11-11.8 11z" fill="url(#SVGID_1_)"/>
  <ellipse transform="rotate(-60.765 216.506 195.54)" class="st1" cx="216.5" cy="195.5" rx="7.5" ry="4"/>
  <ellipse transform="rotate(-28.14 197.54 182.048)" class="st2" cx="197.5" cy="182" rx="7.8" ry="3.8"/>
  <ellipse transform="rotate(-26.051 176.936 190.251)" class="st2" cx="176.9" cy="190.3" rx="7.8" ry="3.8"/>
  <ellipse transform="rotate(-26.051 196.708 192.824)" class="st1" cx="196.7" cy="192.8" rx="7.8" ry="3.8"/>
  <ellipse transform="rotate(-47.273 158.616 186.811)" class="st2" cx="158.6" cy="186.8" rx="7.8" ry="3.8"/>
  <ellipse transform="rotate(-47.273 128.72 165.65)" class="st2" cx="128.7" cy="165.7" rx="7.8" ry="3.8"/>
  <ellipse transform="rotate(-12.864 136.484 178.88)" class="st2" cx="136.5" cy="178.9" rx="7.5" ry="4"/>
  <ellipse transform="rotate(-37.266 149.226 160.782)" class="st2" cx="149.2" cy="160.8" rx="7.9" ry="3.8"/>
  <ellipse transform="rotate(-33.488 179.337 164.769)" class="st2" cx="179.3" cy="164.8" rx="4.7" ry="6.4"/>
  <ellipse transform="rotate(-24.474 156.652 172.971)" class="st2" cx="156.7" cy="173" rx="7.8" ry="3.9"/>
  <ellipse transform="rotate(-7.987 181.776 172.394)" class="st2" cx="181.8" cy="172.4" rx="7.4" ry="4.1"/>
  <linearGradient id="SVGID_2_" gradientUnits="userSpaceOnUse" x1="139.208" y1="258.216" x2="261.203" y2="158.308" gradientTransform="matrix(1.026 -.2037 -.00538 -.9736 .211 405.973)">
    <stop offset=".259" stop-color="#f4805c"/>
    <stop offset="1" stop-color="#f05323"/>
  </linearGradient>
  <path d="M286.1 193.5s-13.1-13.8-21.7-29.7c-8.6-15.9-46.3-59.2-110.4-41.5-23.2 6.4-32.5 14.4-38 20.2-3.6 3.8-6 8-7 11.6 19.4-10.5 39.3-6.1 56.1 2 33.8 16.3 66.2 36.3 104.7 43.2 11.6-1.7 16.3-5.8 16.3-5.8z" fill="url(#SVGID_2_)"/>
  <path d="M108.9 154.1c-1.5 5.5.4 9.6 7.1 8.5 11.1-1.9 18.5-9.9 34.9-4.8 16.3 5.1 58.5 34.2 86.6 39.7 14.1 2.8 24.6 2.7 32.2 1.7-66.2-17.7-68-29.1-103.1-45.6-18.7-8.6-46.9-7.8-57.7.5z" fill="#ef4137"/>
  <defs>
    <path id="SVGID_11_" d="M264.4 164.3c-8.6-15.9-46.3-59.2-110.4-41.5-23.2 6.4-32.5 14.4-38 20.2-3.6 3.8-6 8-7 11.6-1.5 5.5.4 9.6 7.1 8.5 11.1-1.9 18.5-9.9 34.9-4.8 16.3 5.1 58.5 34.2 86.6 39.7 14.1 2.8 24.6 2.7 32.2 1.7 11.7-1.7 16.4-5.8 16.4-5.8s-13.2-13.7-21.8-29.6z"/>
  </defs>
  <clipPath id="SVGID_3_">
    <use xlink:href="#SVGID_11_" overflow="visible"/>
  </clipPath>
  <g opacity=".6" clip-path="url(#SVGID_3_)">
    <path class="st6" d="M129.9 158.5c1.1 1.2 2.5-.9 1.7-1.9-4.6-5.2-4-10.7-.8-15.5-.6-.8-1.1-1.7-1.5-2.8-5.1 6.8-3.9 15.1.6 20.2zM164.5 118.3c1.1-1-.2-3-1.5-1.8-4.4 4.2-9.7 6.7-15 9 2.3-.2 4.6-.3 6.8-.5 3.4-1.7 6.6-3.7 9.7-6.7z"/>
    <path class="st6" d="M146.4 128.8c3-1.3 5.8-2.5 8.4-3.8-2.3.2-4.6.3-6.8.5-6.8 3.1-13.7 6.1-18.6 12.6 0 .1-.1.1-.1.2.4 1 .9 2 1.5 2.8 3.3-5.1 9.5-9.6 15.6-12.3zM176.4 133.9c8.8-3.5 16.7-6.8 24.2-12.4-1.5-.1-2.9-.1-4.4-.2-5 3.4-10.3 6-16 8.2-4.4 1.7-10 1.6-14 4.4-3.6 2.6-5.2 7.5-6.6 11.1 1 .3 1.9.6 2.9.9.2-.6.4-1.1.7-1.7 2.9-5.7 7.5-8 13.2-10.3z"/>
    <path class="st6" d="M158.4 163.3c.2 1.5 3.1 1.6 2.9-.3-.8-5.5-1.1-11.3 1.2-17.1-1-.3-1.9-.6-2.9-.9-2.2 6.1-2 12.9-1.2 18.3zM204.7 118.2c1.3-1.2-.9-2.9-2.3-1.7-2 1.8-4.1 3.4-6.2 4.8 1.5 0 2.9.1 4.4.2 1.4-1.1 2.7-2.2 4.1-3.3z"/>
    <path class="st7" d="M177.4 177.6c-.8.7-.4 3.5.3 2.9 3.5-3.3 6.2-6.7 6.9-11.2.3-1.6.1-3.2 0-4.7-.6-.1-1.2-.1-1.7 0 .1 4.2-.1 8-5.5 13z"/>
    <path class="st6" d="M227.3 129c.8-.7.4-3.5-.3-2.9-2.1 2-4.3 3.5-6.5 4.6 1.1.3 2.2.7 3.3 1.1 1.2-.8 2.4-1.7 3.5-2.8zM183.1 157.1c-.5 2.8-.3 5.2-.2 7.5.5-.1 1.1-.1 1.7 0v-.2c-.1-2.7 0-5.3.5-7.8-.6 0-1.2-.1-1.8-.2-.1.2-.2.4-.2.7z"/>
    <path class="st6" d="M192.6 144.6c9.4-7.9 21.3-6 31.3-12.7-1.1-.4-2.2-.7-3.3-1.1-9.3 4.7-23.3 4.5-31.8 11.6-4.8 4-4.4 8.5-5.5 14 .6.1 1.2.1 1.8.2.9-4.3 3-8.3 7.5-12zM211.8 173.2c1 0 2 0 3 .1-1-3.1-.5-6.2 1.6-9.6-1.2.1-2.3.1-3.4.2-1.7 3.4-2.1 6.4-1.2 9.3zM217.9 161.6c4.3-5.5 10.5-6.2 16.4-8.2 3.8-1.3 7.2-3 10.5-5.1-.9-.7-1.7-1.3-2.6-1.9-4.7 2.8-9.6 4.7-15.2 6.5-5.6 1.8-9.5 3.6-12.8 8.9-.4.7-.8 1.3-1.1 2 1.1-.1 2.3-.1 3.4-.2.3-.6.8-1.3 1.4-2z"/>
    <path class="st6" d="M253.8 141.1c.9-.9-1.4-2.8-2.4-1.8-3.1 3-6.1 5.3-9.2 7.2.9.6 1.8 1.3 2.6 1.9 3.1-2.1 6.1-4.5 9-7.3z"/>
    <path class="st7" d="M217.2 178.4c-.2-1.2-.9-1.8-1.4-2.8-.4-.7-.7-1.5-1-2.2-1-.1-2-.1-3-.1.3.8.6 1.6 1 2.4 3.5 5.9-3.6 9.4-2.7 15.4.2 1 2.9 2.2 2.7.8-.6-4.5 5.2-8.9 4.4-13.5zM237.6 179.5c-.3 8.1 7.5 11.9-1.2 20.8-.7.7 1.4 2.7 2.2 1.9 5.1-5.2 5.4-9.5 3.6-15-1.1-3.5-1.6-6.2-.5-9.3-1.2-.3-2.4-.6-3.5-.9-.4.8-.6 1.6-.6 2.5z"/>
    <path d="M268.7 154.3c-.5-.8-3-1.7-2 0 4.9 8.1-6.1 7.4-11.4 8.6-5.1 1.1-8.4 2.5-11.9 6.6-2 2.4-4.2 4.9-5.2 7.5 1.2.2 2.3.5 3.5.9.4-1.2 1-2.4 1.8-3.7 2.2-3.5 4.7-6.1 8.6-7.7 7.9-3.4 23.4-1 16.6-12.2z" fill="#fbcbbd"/>
  </g>
  <g class="st9">
    <path class="st10" d="M183.9 122.9c43.9 0 70.2 31.1 76.7 43.2 6 11.1 14 21.1 18.6 26.5-2.2.9-5.5 1.9-9.8 2.5-2.6.4-5.5.6-8.6.6-1.6 0-3.1.8-3.9 2.2 0 .1-.1.1-.1.2-3.1 4.7-12.1 7.2-25.3 7.2-11.3 0-22.3-1.8-27.9-2.9-4.2-.8-13.1-3.4-23.5-6.4-12.7-3.7-27.1-7.9-39-10.6-6.5-1.5-14.9-6.8-17.2-23.5-.2-1.4-1-2.5-2.1-3.3-.8-.5-1.7-.8-2.6-.8-.4 0-.8 0-1.2.2-.9.2-1.6.4-2.2.5-.5.1-.9.1-1.3.1-.3 0-.6 0-.7-.1 0-.1-.1-.4 0-.8v-.3c0-.6.1-1.3.3-2.1.8-3 3-6.5 5.9-9.6 5.4-5.7 14.4-13 35.8-18.9 9.5-2.6 19-3.9 28.1-3.9m0-4.8c-9.1 0-19 1.3-29.5 4.2-23.2 6.4-32.5 14.4-38 20.2-3.6 3.8-6 8-7 11.6-.3 1.2-.5 2.4-.5 3.4-.1 3.4 1.6 5.8 5.5 5.8.6 0 1.3-.1 2.1-.2.9-.2 1.8-.3 2.6-.6 1.3 8.8 5.6 23.9 20.9 27.4 21.8 5 53.1 15.2 62.7 17.1 7.5 1.4 18.3 2.9 28.8 2.9 12.6 0 24.6-2.2 29.3-9.4 0-.1.1-.1.1-.2 3.5 0 6.5-.3 9.2-.7 11.7-1.7 16.4-5.8 16.4-5.8l-.3-.3c.2-.1.3-.2.3-.2s-13.1-13.8-21.7-29.7c-7.2-13.1-34.7-45.5-80.9-45.5z"/>
  </g>
  <linearGradient id="SVGID_4_" gradientUnits="userSpaceOnUse" x1="163.403" y1="157.785" x2="163.403" y2="86.487" gradientTransform="matrix(1.0244 -.2537 -.0584 -.9617 17.324 405.098)">
    <stop offset=".1" stop-color="#f5f5f5"/>
    <stop offset="1" stop-color="#d0d8dc"/>
  </linearGradient>
  <path d="M103.1 228s-.4 28.8 21.4 33.9c21.8 5 53.1 15.2 62.7 17.1 16.4 3.1 49.4 6.7 58.1-6.5 16.3-24.6-2-54.8-32.3-60.7s-85.6-2.3-98.1 5.2c-12.7 7.6-11.8 11-11.8 11z" fill="url(#SVGID_4_)"/>
  <ellipse transform="rotate(-60.765 201.419 267.446)" class="st1" cx="201.4" cy="267.4" rx="7.5" ry="4"/>
  <ellipse transform="rotate(-15.188 222.076 268.223)" class="st1" cx="222.1" cy="268.2" rx="7.5" ry="4"/>
  <ellipse transform="rotate(-28.14 182.455 253.952)" class="st2" cx="182.5" cy="253.9" rx="7.8" ry="3.8"/>
  <ellipse transform="rotate(-26.051 161.855 262.156)" class="st2" cx="161.8" cy="262.2" rx="7.8" ry="3.8"/>
  <ellipse transform="rotate(-26.051 181.626 264.73)" class="st1" cx="181.6" cy="264.7" rx="7.8" ry="3.8"/>
  <ellipse transform="rotate(-47.273 143.536 258.715)" class="st2" cx="143.5" cy="258.7" rx="7.8" ry="3.8"/>
  <ellipse transform="rotate(-47.273 113.64 237.554)" class="st2" cx="113.6" cy="237.6" rx="7.8" ry="3.8"/>
  <ellipse transform="rotate(-12.864 121.4 250.783)" class="st2" cx="121.4" cy="250.8" rx="7.5" ry="4"/>
  <ellipse transform="rotate(-37.266 134.143 232.686)" class="st2" cx="134.1" cy="232.7" rx="7.9" ry="3.8"/>
  <ellipse transform="rotate(-33.488 164.261 236.675)" class="st2" cx="164.3" cy="236.7" rx="4.7" ry="6.4"/>
  <ellipse transform="rotate(-24.474 141.578 244.89)" class="st2" cx="141.6" cy="244.9" rx="7.8" ry="3.9"/>
  <ellipse transform="rotate(-7.987 166.695 244.298)" class="st2" cx="166.7" cy="244.3" rx="7.4" ry="4.1"/>
  <linearGradient id="SVGID_5_" gradientUnits="userSpaceOnUse" x1="124.133" y1="187.498" x2="246.131" y2="87.588" gradientTransform="matrix(1.026 -.2037 -.00538 -.9736 .211 405.973)">
    <stop offset=".259" stop-color="#f05454"/>
    <stop offset="1" stop-color="#ed1c24"/>
  </linearGradient>
  <path d="M271 265.4s-13.1-13.8-21.7-29.7c-8.6-15.9-46.3-59.2-110.4-41.5-23.2 6.4-32.5 14.4-38 20.2-3.6 3.8-6 8-7 11.6 19.4-10.5 39.3-6.1 56.1 2 33.8 16.3 66.2 36.3 104.7 43.2 11.6-1.7 16.3-5.8 16.3-5.8z" fill="url(#SVGID_5_)"/>
  <path d="M93.8 226c-1.5 5.5.4 9.6 7.1 8.5 11.1-1.9 18.4-9.2 34.7-4.1 16.3 5.1 58.7 33.5 86.8 39.1 14.1 2.8 24.6 2.7 32.2 1.7-66.1-17.7-68-29.1-103.1-45.5-18.6-8.8-46.8-8-57.7.3z" fill="#cb2027"/>
  <g>
    <defs>
      <path id="SVGID_15_" d="M249.3 236.2c-8.6-15.9-46.3-59.2-110.4-41.5-23.2 6.4-32.5 14.4-38 20.2-3.6 3.8-6 8-7 11.6-1.5 5.5.4 9.6 7.1 8.5 11.1-1.9 18.5-9.9 34.9-4.8 16.3 5.1 59.3 33.9 87.4 39.5 14.1 2.8 23.8 3 31.4 2 11.7-1.7 16.4-5.8 16.4-5.8s-13.2-13.8-21.8-29.7z"/>
    </defs>
    <clipPath id="SVGID_6_">
      <use xlink:href="#SVGID_15_" overflow="visible"/>
    </clipPath>
    <g opacity=".6" clip-path="url(#SVGID_6_)">
      <path class="st15" d="M114.8 230.4c.4 0 2.5-.9 1.7-1.9-4.6-5.2-4-10.7-.8-15.5-.6-.8-1.1-1.7-1.5-2.8-5.1 6.8-6.1 21 .6 20.2zM149.4 190.2c1.1-1-.2-3-1.5-1.8-4.4 4.2-9.7 6.7-15 9 2.3-.2 4.6-.3 6.8-.5 3.4-1.7 6.6-3.7 9.7-6.7z"/>
      <path class="st15" d="M131.3 200.7c3-1.3 5.8-2.5 8.4-3.8-2.3.2-4.6.3-6.8.5-6.8 3.1-13.7 6.1-18.6 12.6 0 .1-.1.1-.1.2.4 1 .9 2 1.5 2.8 3.3-5.1 9.5-9.6 15.6-12.3zM161.3 205.8c8.8-3.5 16.7-6.8 24.2-12.4-1.5-.1-2.9-.1-4.4-.2-5 3.4-10.3 6-16 8.2-4.4 1.7-10 1.6-14 4.4-3.6 2.6-5.2 7.5-6.6 11.1 1 .3 1.9.6 2.9.9.2-.6.4-1.1.7-1.7 2.9-5.7 7.5-8 13.2-10.3zM143.4 235.3c.2 1.5 3.1 1.6 2.9-.3-.8-5.5-1.1-11.3 1.2-17.1-1-.3-1.9-.6-2.9-.9-2.3 6-2.1 12.8-1.2 18.3z"/>
      <path class="st15" d="M189.6 190.1c1.3-1.2-.9-2.9-2.3-1.7-2 1.8-4.1 3.4-6.2 4.8 1.5 0 2.9.1 4.4.2 1.4-1.1 2.7-2.1 4.1-3.3zM162.3 249.5c-.8.7-.4 3.5.3 2.9 3.5-3.3 6.2-6.7 6.9-11.2.3-1.6.1-3.2 0-4.7-.6-.1-1.2-.1-1.7 0 .1 4.2-.1 8-5.5 13zM212.3 200.9c.8-.7.4-3.5-.3-2.9-2.1 2-4.3 3.5-6.5 4.6 1.1.3 2.2.7 3.3 1.1 1.1-.8 2.3-1.7 3.5-2.8z"/>
      <path class="st15" d="M168 229c-.5 2.8-.3 5.2-.2 7.5.5-.1 1.1-.1 1.7 0v-.2c-.1-2.7 0-5.3.5-7.8-.6 0-1.2-.1-1.8-.2-.1.2-.1.5-.2.7z"/>
      <path class="st15" d="M177.5 216.5c9.4-7.9 21.3-6 31.3-12.7-1.1-.4-2.2-.7-3.3-1.1-9.3 4.7-23.3 4.5-31.8 11.6-4.8 4-4.4 8.5-5.5 14 .6.1 1.2.1 1.8.2.9-4.3 3-8.3 7.5-12z"/>
      <g opacity=".6">
        <path class="st15" d="M196.7 245.1c1 0 2 0 3 .1-1-3.1-.5-6.2 1.6-9.6-1.2.1-2.3.1-3.4.2-1.7 3.4-2.1 6.4-1.2 9.3zM202.8 233.5c4.3-5.5 10.5-6.2 16.4-8.2 3.8-1.3 7.2-3 10.5-5.1-.9-.7-1.7-1.3-2.6-1.9-4.7 2.8-9.6 4.7-15.2 6.5-5.6 1.8-9.5 3.6-12.8 8.9-.4.7-.8 1.3-1.1 2 1.1-.1 2.3-.1 3.4-.2.4-.6.8-1.3 1.4-2z"/>
        <path class="st15" d="M238.7 213c.9-.9-1.4-2.8-2.4-1.8-3.1 3-6.1 5.3-9.2 7.2.9.6 1.8 1.3 2.6 1.9 3.1-2.1 6.1-4.5 9-7.3z"/>
        <path d="M202.1 250.3c-.2-1.2-.9-1.8-1.4-2.8-.4-.7-.7-1.5-1-2.2-1-.1-2-.1-3-.1.3.8.6 1.6 1 2.4 3.5 5.9-3.6 9.4-2.7 15.4.2 1 2.9 2.2 2.7.8-.6-4.5 5.2-8.9 4.4-13.5z" opacity=".8" fill="#a31e22"/>
      </g>
      <path class="st15" d="M222.5 251.4c-.3 8.1 7.5 11.9-1.2 20.8-.7.7 1.4 2.7 2.2 1.9 5.1-5.2 5.4-9.5 3.6-15-1.1-3.5-1.6-6.2-.5-9.3-1.2-.3-2.4-.6-3.5-.9-.4.8-.6 1.6-.6 2.5z"/>
      <path class="st15" d="M253.6 226.2c-.5-.8-3-1.7-2 0 4.9 8.1-6.1 7.4-11.4 8.6-5.1 1.1-8.4 2.5-11.9 6.6-2 2.4-4.2 4.9-5.2 7.5 1.2.2 2.3.5 3.5.9.4-1.2 1-2.4 1.8-3.7 2.2-3.5 4.7-6.1 8.6-7.7 8-3.4 23.4-1 16.6-12.2z"/>
    </g>
  </g>
  <g class="st9">
    <path class="st10" d="M168.4 194.3c43.9 0 70.2 31.1 76.7 43.2 6 11.1 14 21.1 18.6 26.5-2.2.9-5.5 1.9-9.8 2.5-2.6.4-5.3.5-8.2.5h-.3c-1.6 0-3.1.8-4 2.2 0 .1-.1.2-.2.3-3.1 4.7-12.1 7.2-25.3 7.2-11.3 0-22.3-1.8-27.9-2.8-4.2-.8-13.1-3.4-23.5-6.4-12.7-3.7-27.1-7.9-39-10.6-6.5-1.5-14.9-6.8-17.2-23.5-.2-1.4-1-2.5-2.1-3.3-.8-.5-1.7-.8-2.6-.8-.4 0-.8 0-1.2.2-.9.2-1.6.4-2.2.5-.5.1-.9.1-1.3.1-.3 0-.6 0-.7-.1 0-.1-.1-.4 0-.8v-.3c0-.6.1-1.3.3-2.1.8-3 3-6.5 5.9-9.6 5.4-5.7 14.4-13 35.8-18.9 9.6-2.7 19.1-4 28.2-4m0-4.8c-9.1 0-19 1.3-29.5 4.2-23.2 6.4-32.5 14.4-38 20.2-3.6 3.8-6 8-7 11.6-.3 1.2-.5 2.4-.5 3.4-.1 3.4 1.6 5.8 5.5 5.8.6 0 1.3-.1 2.1-.2.9-.2 1.8-.3 2.6-.6 1.3 8.8 5.6 23.9 20.9 27.4 21.8 5 53.1 15.2 62.7 17.1 7.5 1.4 18.3 2.9 28.8 2.9 12.6 0 24.6-2.2 29.3-9.4 0-.1.1-.2.1-.2h.3c3.3 0 6.2-.2 8.9-.6 11.7-1.7 16.4-5.8 16.4-5.8l-.3-.3c.2-.1.3-.2.3-.2s-13.1-13.8-21.7-29.7c-7.2-13.3-34.6-45.6-80.9-45.6z"/>
  </g>
  <g>
    <path class="st18" d="M331.4 190c-.4-.5-.7-1.2-.7-2.1 0-.9.2-1.8.7-2.7.4-.8 1-1.5 1.7-2s1.5-.8 2.3-.8c.3 0 .4.1.5.2.1.1.2.3.2.5.2 0 .5-.1.8-.1.6 0 .9.2.9.6 0 .2-.1.8-.3 1.8-.3 1.4-.4 2.3-.4 2.8 0 .2 0 .3.1.4.1.1.2.2.3.2.2 0 .5-.1.8-.4.3-.3.8-.8 1.3-1.4.1-.2.3-.2.5-.2s.3.1.4.2c.1.1.1.3.1.6 0 .5-.1.8-.3 1.1-.5.6-1 1.1-1.5 1.5s-1.1.6-1.6.6c-.4 0-.7-.1-1.1-.4-.3-.3-.6-.6-.7-1.1-.6 1-1.4 1.5-2.3 1.5-.7 0-1.3-.3-1.7-.8zm3.1-1.4c.2-.3.4-.7.5-1.2l.7-3.3c-.5 0-1 .2-1.4.6s-.8.8-1 1.4c-.2.6-.4 1.2-.4 1.9 0 .4.1.6.2.8s.4.3.6.3c.4-.1.6-.2.8-.5z"/>
    <path class="st18" d="M339.6 190.1c-.2-.5-.3-1.2-.3-2.3 0-1.5.2-3 .7-4.4.1-.3.3-.6.5-.8.2-.2.6-.2 1-.2.2 0 .4 0 .5.1.1.1.1.2.1.3 0 .2-.1.6-.3 1.3-.1.5-.2.9-.3 1.2-.1.4-.1.8-.2 1.3.4-1 .8-1.8 1.3-2.5.5-.6 1-1.1 1.4-1.4.5-.3.9-.4 1.3-.4s.7.1.9.3c.2.2.3.5.3.9 0 .3-.1.9-.2 1.7-.1.7-.2 1.4-.3 2-.1.6-.1 1.4-.1 2.2 0 .4-.1.8-.3 1-.2.2-.5.3-.9.3s-.7-.1-.9-.3c-.2-.2-.3-.5-.3-.9 0-.5.1-1.3.2-2.3.1-.9.2-1.5.2-1.8 0-.2-.1-.3-.2-.3-.2 0-.4.2-.6.6s-.6.9-.8 1.6c-.3.6-.5 1.3-.7 2.1-.1.6-.3.9-.5 1.1-.2.2-.4.3-.8.3-.2 0-.5-.2-.7-.7zM360.8 187c.1.1.1.3.1.6 0 .5-.1.8-.3 1.1-.4.5-1.1 1-1.9 1.5s-1.7.7-2.6.7c-1.2 0-2.2-.3-2.9-1-.7-.7-1-1.6-1-2.8 0-.8.2-1.6.5-2.3.3-.7.8-1.3 1.4-1.7.6-.4 1.3-.6 2.1-.6.7 0 1.2.2 1.6.6.4.4.6 1 .6 1.7 0 .8-.3 1.5-.9 2.1-.6.6-1.6 1-3 1.4.3.5.9.8 1.7.8.5 0 1.1-.2 1.8-.6.7-.4 1.3-.9 1.8-1.5.1-.2.3-.2.5-.2.3 0 .5 0 .5.2zm-5.9-2c-.3.5-.5 1.1-.5 1.8.7-.2 1.2-.4 1.6-.7s.6-.7.6-1.2c0-.2-.1-.4-.2-.5-.1-.1-.3-.2-.5-.2-.3 0-.7.2-1 .8z"/>
    <path class="st18" d="M370.1 187c.1.1.1.3.1.6 0 .5-.1.8-.3 1.1-.5.6-1.1 1.1-1.7 1.5-.6.4-1.3.6-2.1.6-.6 0-1.1-.1-1.6-.3-.5-.2-.8-.5-1.1-1-.7.9-1.5 1.3-2.4 1.3-.6 0-1.2-.2-1.5-.6-.4-.4-.6-.9-.6-1.5s.1-1.1.4-1.4c.3-.4.7-.5 1.2-.5.4 0 .6.2.6.5v.4c0 .4-.1.7-.1.7 0 .4.2.5.5.5.2 0 .4-.1.6-.4.2-.3.4-.6.5-1.1.1-.5.2-1 .2-1.5 0-.4-.1-.8-.2-1.1-.1-.3-.2-.4-.4-.4-.1 0-.2 0-.3.1-.1.1-.1.2-.2.3-.1.2-.2.3-.3.5s-.3.2-.6.2-.5-.1-.6-.3c-.2-.2-.2-.5-.2-.8 0-.6.2-1.1.5-1.4.4-.3.8-.5 1.4-.5.5 0 .9.1 1.3.4s.7.6.9 1.1c.4-.5.8-.8 1.2-1.1.4-.2.9-.4 1.3-.4.5 0 .8.1 1.1.3s.4.6.4 1c0 .5-.1.9-.3 1.2-.2.3-.4.5-.7.5-.3 0-.4-.1-.5-.2s-.2-.3-.2-.5c0-.1-.1-.2-.1-.3 0-.1-.1-.1-.2-.1s-.3.1-.5.4c-.2.3-.3.6-.4 1.1s-.2.9-.2 1.4c0 .6.1 1 .4 1.3.3.3.6.5 1.1.5.5 0 .9-.2 1.3-.5s.9-.8 1.4-1.5c.1-.2.3-.2.5-.2.2-.1.3-.1.4.1z"/>
    <path class="st18" d="M377.2 187c.1.1.1.3.1.6 0 .5-.1.8-.3 1.1-.5.6-1.1 1.1-1.7 1.5-.6.4-1.3.6-2.1.6-2.4 0-3.6-1.7-3.6-5.1 0-.5 0-1 .1-1.6h-.7c-.4 0-.6-.1-.7-.2-.1-.1-.2-.3-.2-.6 0-.7.3-1 .8-1h1c.2-1.3.5-2.5.9-3.6s.9-1.9 1.5-2.6c.6-.6 1.2-1 1.9-1 .5 0 .9.2 1.2.7s.4 1 .4 1.6c0 1.8-.8 3.4-2.3 4.8h2c.2 0 .3 0 .4.1s.1.2.1.5c0 .8-.7 1.2-2 1.2h-2.2v1.4c0 1.2.1 2.1.4 2.6.3.5.7.7 1.4.7.5 0 1-.2 1.3-.5s.9-.8 1.4-1.4c.1-.2.3-.2.5-.2.2.2.3.2.4.4zm-4.1-9.4c-.2.4-.4 1.1-.6 1.8-.2.8-.4 1.7-.5 2.6.7-.6 1.2-1.3 1.6-2 .3-.7.5-1.4.5-2 0-.7-.1-1-.4-1-.2-.1-.4.2-.6.6z"/>
    <path class="st18" d="M384.1 187c.1.1.1.3.1.6 0 .5-.1.8-.3 1.1-.4.5-1.1 1-1.9 1.5s-1.7.7-2.6.7c-1.2 0-2.2-.3-2.9-1-.7-.7-1-1.6-1-2.8 0-.8.2-1.6.5-2.3.3-.7.8-1.3 1.4-1.7.6-.4 1.3-.6 2.1-.6.7 0 1.2.2 1.6.6.4.4.6 1 .6 1.7 0 .8-.3 1.5-.9 2.1-.6.6-1.6 1-3 1.4.3.5.9.8 1.7.8.5 0 1.1-.2 1.8-.6.7-.4 1.3-.9 1.8-1.5.1-.2.3-.2.5-.2.3 0 .4 0 .5.2zm-5.9-2c-.3.5-.5 1.1-.5 1.8.7-.2 1.2-.4 1.6-.7s.6-.7.6-1.2c0-.2-.1-.4-.2-.5-.1-.1-.3-.2-.5-.2-.3 0-.7.2-1 .8z"/>
    <path class="st18" d="M383.1 190.1c-.2-.5-.3-1.2-.3-2.3 0-1.5.2-3 .7-4.4.1-.3.3-.6.5-.8.2-.2.6-.2 1-.2.2 0 .4 0 .5.1.1.1.1.2.1.3 0 .2-.1.6-.3 1.3-.1.5-.2.9-.3 1.2-.1.4-.1.8-.2 1.3.4-1 .8-1.8 1.3-2.5.5-.6 1-1.1 1.4-1.4.5-.3.9-.4 1.3-.4.8 0 1.2.4 1.2 1.2 0 .5-.1 1.3-.4 2.5-.2 1-.3 1.7-.3 2 0 .5.2.7.5.7.2 0 .5-.1.8-.4.3-.3.8-.8 1.3-1.4.1-.2.3-.2.5-.2s.3.1.4.2c.1.1.1.3.1.6 0 .5-.1.8-.3 1.1-.5.6-1.1 1.1-1.6 1.5-.6.4-1.2.6-2 .6-.6 0-1.1-.2-1.4-.5-.3-.3-.5-.9-.5-1.5 0-.3.1-.9.2-1.8.2-.7.2-1.3.2-1.5 0-.2-.1-.3-.2-.3-.2 0-.4.2-.6.6s-.6.9-.8 1.6c-.3.6-.5 1.3-.7 2.1-.1.6-.3.9-.5 1.1-.2.2-.4.3-.8.3-.3 0-.6-.2-.8-.7z"/>
    <path class="st18" d="M402 187c.1.1.1.3.1.6 0 .5-.1.8-.3 1.1-.5.6-1 1.1-1.6 1.5-.6.4-1.2.6-1.7.6-.9 0-1.6-.5-2.1-1.6-.5.6-.9 1-1.3 1.3-.4.2-.8.3-1.3.3-.7 0-1.3-.3-1.8-.8s-.7-1.2-.7-2.1c0-.9.2-1.8.6-2.6.4-.8 1-1.5 1.7-2s1.5-.8 2.4-.9c.2-2.3.7-4.2 1.3-5.9s1.5-2.4 2.5-2.4c.5 0 .9.2 1.3.7.3.5.5 1.2.5 2.1 0 1.3-.3 2.9-1 4.6-.6 1.8-1.5 3.6-2.6 5.5 0 .7.2 1.2.3 1.5.2.3.4.4.6.4.3 0 .6-.1 1-.4.3-.3.8-.8 1.3-1.4.1-.2.3-.2.5-.2.1-.1.3-.1.3.1zm-6.8 1.7c.2-.2.5-.5.9-1-.1-.6-.2-1.4-.2-2.1v-1.4c-.6.2-1.2.6-1.6 1.3-.4.7-.6 1.4-.6 2.2 0 .9.3 1.3.9 1.3.1 0 .3-.1.6-.3zm3.7-11.7c-.2.8-.4 1.8-.6 3.1-.2 1.3-.3 2.6-.3 4 1.3-2.9 2-5.2 2-6.9 0-.4 0-.8-.1-1s-.2-.4-.3-.4c-.2 0-.5.4-.7 1.2z"/>
    <path class="st18" d="M401 190c-.4-.5-.7-1.2-.7-2.1 0-.9.2-1.8.7-2.7.4-.8 1-1.5 1.7-2s1.5-.8 2.3-.8c.3 0 .4.1.5.2.1.1.2.3.2.5.2 0 .5-.1.8-.1.6 0 .9.2.9.6 0 .2-.1.8-.3 1.8-.3 1.4-.4 2.3-.4 2.8 0 .2 0 .3.1.4.1.1.2.2.3.2.2 0 .5-.1.8-.4.3-.3.8-.8 1.3-1.4.1-.2.3-.2.5-.2s.3.1.4.2c.1.1.1.3.1.6 0 .5-.1.8-.3 1.1-.5.6-1 1.1-1.5 1.5s-1.1.6-1.6.6c-.4 0-.7-.1-1.1-.4-.3-.3-.6-.6-.7-1.1-.6 1-1.4 1.5-2.3 1.5-.7 0-1.3-.3-1.7-.8zm3.1-1.4c.2-.3.4-.7.5-1.2l.7-3.3c-.5 0-1 .2-1.4.6s-.8.8-1 1.4c-.2.6-.4 1.2-.4 1.9 0 .4.1.6.2.8s.4.3.6.3c.3-.1.6-.2.8-.5z"/>
    <path class="st18" d="M418.7 185.5c.1.2.1.3.1.6s0 .5-.1.7c-.1.2-.2.3-.4.3-.7.2-1.5.4-2.3.4-.2 1-.7 1.8-1.3 2.4-.7.6-1.4.9-2.2.9-1.2 0-2.1-.5-2.6-1.4-.5-.9-.8-2.2-.8-4 0-1.5.2-3.2.6-5s.9-3.3 1.7-4.6c.7-1.3 1.6-1.9 2.6-1.9.5 0 1 .2 1.3.7.3.5.5 1.1.5 1.8 0 1-.2 1.9-.5 2.9s-1 2-1.8 3c.8.1 1.4.4 1.9 1s.8 1.3.9 2.2c.6 0 1.2-.2 2-.4h.2c0 .2.1.3.2.4zm-5.2 3c.3-.3.5-.8.6-1.3-.4-.2-.6-.6-.8-1-.2-.4-.3-.8-.3-1.3 0-.2 0-.4.1-.7h-.1c-.5 0-.9.2-1.2.7-.3.5-.5 1.1-.5 1.9 0 .7.1 1.2.4 1.5.3.4.6.5.9.5.3.1.6 0 .9-.3zm-.8-11.6c-.3.7-.5 1.7-.8 2.9-.2 1.2-.4 2.5-.5 4 .8-1.4 1.4-2.7 1.9-3.8.5-1.1.7-2.1.7-2.9 0-.4 0-.7-.1-.9s-.2-.3-.4-.3c-.3-.1-.6.3-.8 1z"/>
    <path class="st18" d="M424.3 187c.1.1.1.3.1.6 0 .5-.1.8-.3 1.1-.5.6-1.1 1.1-1.7 1.5-.6.4-1.3.6-2 .6-1 0-1.8-.5-2.3-1.4-.5-.9-.8-2.2-.8-3.7 0-1.4.2-3.1.6-4.9s.9-3.4 1.6-4.7 1.6-2 2.6-2c.6 0 1 .3 1.3.8.3.5.5 1.3.5 2.3 0 1.4-.4 3-1.2 4.9s-1.8 3.7-3.2 5.5c.1.5.2.8.4 1 .2.2.4.3.7.3.5 0 .9-.1 1.3-.4.4-.3.8-.8 1.4-1.4.1-.2.3-.2.5-.2.3-.1.5-.1.5.1zm-3.4-9.7c-.3 1-.6 2.2-.9 3.6s-.4 2.8-.4 4.2c.8-1.4 1.5-2.8 2-4.2s.7-2.7.7-3.8c0-.9-.2-1.3-.5-1.3s-.6.5-.9 1.5z"/>
    <path class="st18" d="M429.7 187.5c.1.1.1.3.1.6 0 .4-.1.8-.3 1.1-.3.5-.8.9-1.3 1.2-.5.3-1.2.4-1.9.4-1.1 0-2-.3-2.6-1-.6-.7-.9-1.6-.9-2.8 0-.8.2-1.6.5-2.3.3-.7.8-1.3 1.4-1.7.6-.4 1.3-.6 2.1-.6.7 0 1.2.2 1.6.6.4.4.6 1 .6 1.7 0 .8-.3 1.5-.9 2.1-.6.6-1.6 1-3 1.4.3.5.8.8 1.4.8.5 0 .9-.1 1.2-.3.3-.2.7-.6 1.1-1.1.1-.2.3-.3.5-.3s.4.1.4.2zm-4.3-2.5c-.3.5-.5 1.1-.5 1.8.7-.2 1.2-.4 1.6-.7s.6-.7.6-1.2c0-.2-.1-.4-.2-.5-.1-.1-.3-.2-.5-.2-.4 0-.7.2-1 .8zM444.2 187c.1.1.1.3.1.6 0 .4-.1.8-.3 1.1-.6.7-1.2 1.3-2.1 1.7-.8.4-1.7.6-2.8.6-.8 0-1.5-.1-2.1-.4-.6-.2-1-.6-1.4-1-.3-.4-.5-.9-.5-1.4 0-.8.3-1.5.9-2.1.6-.6 1.5-1.2 2.7-1.7l-2.9.1c-.3 0-.5-.1-.6-.3-.1-.2-.2-.4-.2-.7 0-.3.1-.5.2-.8.1-.2.3-.3.6-.3.5 0 1.3 0 2.2.1.2 0 .5 0 1 .1.5 0 .9.1 1.3.1.1 0 .3 0 .7-.1.1 0 .2 0 .3-.1s.3-.1.4-.1c.2 0 .3.1.5.2.1.2.2.4.2.8s-.1.7-.3.9c-.2.2-.5.4-.8.6-1.1.5-2 1-2.7 1.5-.7.5-1.1 1-1.1 1.6 0 .3.2.6.5.8.3.2.8.3 1.4.3.7 0 1.3-.2 2-.5s1.3-.8 1.8-1.5c.1-.2.3-.2.5-.2.3-.1.4-.1.5.1z"/>
    <path class="st18" d="M444.8 190.8c-.3-.3-.5-.6-.5-1 0-.3.1-.6.3-.8.2-.2.6-.3 1-.3h.5c.2 0 .4.1.5.1 0-.3-.1-.6-.2-.9-.1-.3-.3-.5-.5-.8-.2-.3-.4-.5-.5-.7-.4.7-.7 1.3-1.1 1.7-.4.5-.8.9-1.2 1.3-.2.2-.4.3-.7.3-.2 0-.3-.1-.5-.2s-.2-.3-.2-.5.1-.5.2-.7l.2-.3c.6-.8 1.1-1.5 1.5-2 .2-.3.4-.8.7-1.4s.5-1.2.8-1.8c.2-.5.7-.8 1.4-.8.3 0 .6 0 .7.1.1.1.2.2.2.3 0 .1 0 .2-.1.3 0 .2-.1.3-.2.5-.2.4-.3.8-.3 1.1 0 .2.1.4.2.6.1.2.3.5.6.8.4.5.7.9.9 1.3.2.3.3.7.3 1.1v.5c.6-.2 1.3-.8 2-1.8.1-.2.3-.2.5-.2s.3.1.4.2c.1.1.1.3.1.6 0 .4-.1.8-.3 1.1-.6.7-1.2 1.2-1.7 1.5s-1.2.4-2 .4c-.5.4-1 .6-1.7.6-.5.2-1 0-1.3-.2z"/>
    <path class="st18" d="M457.6 182.8c.2.2.3.5.3.9 0 .3-.1.9-.2 1.7-.1.7-.2 1.4-.3 2-.1.6-.1 1.4-.1 2.2 0 .4-.1.8-.3 1-.2.2-.5.3-.9.3s-.7-.1-.9-.3c-.2-.2-.3-.5-.3-.9 0-.5.1-1.3.2-2.3.1-.9.2-1.5.2-1.8 0-.2-.1-.3-.2-.3-.2 0-.4.2-.7.6s-.6.9-.8 1.6c-.3.6-.5 1.3-.7 2.1-.1.6-.3.9-.5 1.1-.2.2-.4.3-.8.3s-.6-.1-.8-.4-.3-.7-.3-1.2c-.1-.6-.1-1.4-.1-2.4 0-1.8.2-3.7.6-5.7s.9-3.6 1.6-5c.7-1.3 1.6-2 2.6-2 .5 0 1 .2 1.3.7.3.5.5 1.1.5 1.8 0 1.2-.3 2.4-1 3.7-.7 1.3-1.8 2.8-3.4 4.5 0 .6-.1 1.2-.1 1.9.4-1 .8-1.8 1.3-2.5.5-.6 1-1.1 1.4-1.4.5-.3.9-.4 1.3-.4.6-.1.9 0 1.1.2zm-3.3-6.1c-.3.6-.5 1.4-.8 2.5s-.4 2.2-.6 3.4c.7-.9 1.3-1.8 1.8-2.8.5-1 .7-1.9.7-2.8 0-.4 0-.7-.1-.9s-.2-.3-.4-.3c-.1 0-.3.3-.6.9zM472.1 187c.1.1.1.3.1.6 0 .5-.1.8-.3 1.1-.5.6-1.1 1.1-1.7 1.5-.6.4-1.3.6-2.1.6-2.4 0-3.6-1.7-3.6-5.1 0-.5 0-1 .1-1.6h-.7c-.4 0-.6-.1-.7-.2-.1-.1-.2-.3-.2-.6 0-.7.3-1 .8-1h1c.2-1.3.5-2.5.9-3.6s.9-1.9 1.5-2.6c.6-.6 1.2-1 1.9-1 .5 0 .9.2 1.2.7s.4 1 .4 1.6c0 1.8-.8 3.4-2.3 4.8h2c.2 0 .3 0 .4.1s.1.2.1.5c0 .8-.7 1.2-2 1.2h-2.2v1.4c0 1.2.1 2.1.4 2.6.3.5.7.7 1.4.7.5 0 1-.2 1.3-.5s.9-.8 1.4-1.4c.1-.2.3-.2.5-.2.2.2.3.2.4.4zm-4.1-9.4c-.2.4-.4 1.1-.6 1.8-.2.8-.4 1.7-.5 2.6.7-.6 1.2-1.3 1.6-2 .3-.7.5-1.4.5-2 0-.7-.1-1-.4-1-.1-.1-.3.2-.6.6z"/>
    <path class="st18" d="M481 187c.1.1.1.3.1.6 0 .5-.1.8-.3 1.1-.5.6-1.1 1.1-1.7 1.5-.6.4-1.2.6-2 .6-.6 0-1.1-.2-1.4-.5-.3-.3-.5-.9-.5-1.5 0-.3.1-.9.2-1.8.2-.7.2-1.3.2-1.5 0-.2-.1-.3-.2-.3-.2 0-.4.2-.7.6s-.6.9-.8 1.6c-.3.6-.5 1.3-.7 2.1-.2.9-.8 1.4-1.7 1.4-.4 0-.6-.1-.7-.4-.1-.3-.2-.7-.2-1.4v-2.3c0-1.8.2-3.7.6-5.7s.9-3.6 1.6-5c.7-1.3 1.6-2 2.6-2 .5 0 1 .2 1.3.7.3.5.5 1.1.5 1.8 0 1.2-.3 2.4-1 3.7-.7 1.3-1.8 2.8-3.4 4.5 0 .6-.1 1.2-.1 1.9.4-1 .8-1.8 1.3-2.5.5-.6 1-1.1 1.4-1.4.5-.3.9-.4 1.3-.4.8 0 1.2.4 1.2 1.2 0 .5-.1 1.3-.4 2.5-.2 1-.3 1.7-.3 2 0 .5.2.7.5.7.2 0 .5-.1.8-.4.3-.3.8-.8 1.3-1.4.1-.2.3-.2.5-.2.5 0 .6 0 .7.2zm-6.3-10.3c-.3.6-.5 1.4-.8 2.5s-.4 2.2-.6 3.4c.7-.9 1.3-1.8 1.8-2.8.5-1 .7-1.9.7-2.8 0-.4 0-.7-.1-.9s-.2-.3-.4-.3c-.1 0-.4.3-.6.9z"/>
    <path class="st18" d="M487.9 187c.1.1.1.3.1.6 0 .5-.1.8-.3 1.1-.4.5-1.1 1-1.9 1.5s-1.7.7-2.6.7c-1.2 0-2.2-.3-2.9-1-.7-.7-1-1.6-1-2.8 0-.8.2-1.6.5-2.3.3-.7.8-1.3 1.4-1.7.6-.4 1.3-.6 2.1-.6.7 0 1.2.2 1.6.6.4.4.6 1 .6 1.7 0 .8-.3 1.5-.9 2.1-.6.6-1.6 1-3 1.4.3.5.9.8 1.7.8.5 0 1.1-.2 1.8-.6.7-.4 1.3-.9 1.8-1.5.1-.2.3-.2.5-.2.3 0 .5 0 .5.2zm-5.9-2c-.3.5-.5 1.1-.5 1.8.7-.2 1.2-.4 1.6-.7s.6-.7.6-1.2c0-.2-.1-.4-.2-.5-.1-.1-.3-.2-.5-.2-.3 0-.7.2-1 .8z"/>
    <path class="st18" d="M487 190.1c-.2-.5-.3-1.2-.3-2.3 0-1.5.2-3 .7-4.4.1-.3.3-.6.5-.8.2-.2.6-.2 1-.2.2 0 .4 0 .5.1.1.1.1.2.1.3 0 .2-.1.6-.3 1.3-.1.5-.2.9-.3 1.2-.1.3-.1.8-.2 1.3.3-.9.7-1.7 1.1-2.3.4-.6.9-1.1 1.4-1.4.5-.3.9-.5 1.3-.5s.7.1.9.3c.2.2.3.5.3.9s-.1 1.1-.3 2.1c-.1.4-.2.7-.2 1 .6-1.5 1.2-2.5 2-3.2.7-.7 1.4-1 2-1 .8 0 1.2.4 1.2 1.2 0 .5-.1 1.3-.4 2.5-.2 1-.3 1.7-.3 2 0 .5.2.7.5.7.2 0 .5-.1.8-.4.3-.3.8-.8 1.3-1.4.1-.2.3-.2.5-.2s.3.1.4.2c.1.1.1.3.1.6 0 .5-.1.8-.3 1.1-.5.6-1.1 1.1-1.6 1.5-.6.4-1.2.6-2 .6-.6 0-1.1-.2-1.4-.5-.3-.3-.5-.9-.5-1.5 0-.3.1-.9.2-1.8.2-.7.2-1.3.2-1.5 0-.2-.1-.3-.2-.3-.2 0-.4.2-.7.6-.3.4-.6.9-.9 1.6s-.5 1.3-.7 2.1c-.1.6-.3.9-.5 1.1s-.4.3-.8.3-.7-.2-.9-.6c-.2-.4-.3-.8-.3-1.4 0-.4.1-1.1.2-1.9.1-.8.1-1.3.1-1.5 0-.2-.1-.3-.2-.3-.2 0-.4.2-.7.6-.3.4-.5 1-.8 1.6s-.5 1.3-.6 1.9c-.1.6-.3.9-.5 1.1-.2.2-.4.3-.8.3-.1 0-.5-.2-.6-.7z"/>
    <path class="st18" d="M506.5 187.5c.1.1.1.3.1.6 0 .4-.1.8-.3 1.1-.3.5-.8.9-1.3 1.2-.5.3-1.2.4-1.9.4-1.1 0-2-.3-2.6-1-.6-.7-.9-1.6-.9-2.8 0-.8.2-1.6.5-2.3.3-.7.8-1.3 1.4-1.7.6-.4 1.3-.6 2.1-.6.7 0 1.2.2 1.6.6.4.4.6 1 .6 1.7 0 .8-.3 1.5-.9 2.1-.6.6-1.6 1-3 1.4.3.5.8.8 1.4.8.5 0 .9-.1 1.2-.3.3-.2.7-.6 1.1-1.1.1-.2.3-.3.5-.3s.3.1.4.2zm-4.3-2.5c-.3.5-.5 1.1-.5 1.8.7-.2 1.2-.4 1.6-.7s.6-.7.6-1.2c0-.2-.1-.4-.2-.5-.1-.1-.3-.2-.5-.2-.4 0-.7.2-1 .8z"/>
  </g>
  <g>
    <path class="st19" d="M333.1 231.5c-.5-1.2-.7-3.1-.7-5.8 0-3.9.6-7.6 1.7-11.1.3-.9.7-1.5 1.3-1.9s1.5-.6 2.6-.6c.6 0 1 .1 1.3.2s.4.4.4.9-.2 1.6-.7 3.2c-.3 1.2-.5 2.3-.7 3.2-.2.9-.3 2-.5 3.3 1-2.6 2.1-4.7 3.3-6.3s2.4-2.8 3.6-3.5c1.2-.7 2.3-1 3.3-1 2 0 2.9 1 2.9 2.9 0 1.2-.3 3.3-1 6.3-.6 2.6-.9 4.3-.9 5.2 0 1.2.4 1.8 1.3 1.8.6 0 1.3-.4 2.1-1.1.8-.7 1.9-1.9 3.3-3.6.4-.4.8-.6 1.2-.6.4 0 .7.2.9.5.2.4.3.9.3 1.5 0 1.2-.3 2.1-.9 2.8-1.3 1.6-2.7 2.9-4.2 3.9s-3.2 1.5-5.1 1.5c-1.5 0-2.7-.4-3.5-1.3-.8-.9-1.2-2.2-1.2-3.8 0-.8.2-2.3.6-4.5.4-1.9.6-3.2.6-3.9 0-.5-.2-.7-.5-.7-.4 0-.9.5-1.6 1.5-.7 1-1.4 2.3-2.2 4-.7 1.7-1.3 3.4-1.8 5.2-.3 1.4-.7 2.4-1.1 2.9-.4.5-1.1.7-2 .7-.8 0-1.7-.6-2.1-1.8z"/>
    <path class="st19" d="M355.9 231.2c-.9-1.4-1.3-3.2-1.3-5.5 0-1.4.2-3.1.5-5.2s.8-4.1 1.3-5.9c.3-1 .6-1.6 1.1-2 .5-.4 1.2-.5 2.2-.5 1.5 0 2.3.5 2.3 1.5 0 .8-.3 2.5-.9 5.2-.7 3.3-1.1 5.5-1.1 6.7 0 .9.1 1.6.4 2.1.2.5.6.7 1.2.7.5 0 1.2-.4 2-1.1.8-.7 1.9-1.9 3.2-3.6.4-.4.8-.6 1.2-.6.4 0 .7.2.9.5.2.4.3.9.3 1.5 0 1.2-.3 2.1-.9 2.8-3 3.6-5.7 5.4-8.3 5.4-1.8.1-3.2-.6-4.1-2zm1.8-23c-.6-.6-.9-1.4-.9-2.5s.4-1.9 1.2-2.6c.8-.7 1.9-1.1 3.1-1.1 1.1 0 2 .3 2.7.8s1 1.3 1 2.3c0 1.2-.4 2.2-1.2 2.9-.8.7-1.8 1.1-3.1 1.1-1.2 0-2.2-.3-2.8-.9z"/>
    <path class="st19" d="M389.7 223.7c.2.4.3.8.3 1.4 0 .7-.1 1.2-.3 1.6-.2.4-.5.7-1 1-2.6 1.7-4.5 3-5.7 3.9l-2.9 1.9c-1.1 6.2-2.6 11.1-4.5 14.7s-4.2 5.3-7 5.3c-1.5 0-2.8-.5-3.7-1.4-1-.9-1.4-2.2-1.4-3.7 0-2.1.8-4.4 2.5-6.9 1.7-2.4 4.8-5.5 9.5-9l.3-1.8c-.5.8-1.2 1.4-2 1.9-.8.4-1.6.7-2.5.7-1.9 0-3.3-.7-4.5-2-1.1-1.4-1.7-3.1-1.7-5.3 0-2.4.6-4.7 1.7-6.8 1.1-2.1 2.6-3.9 4.4-5.2s3.8-2 5.9-2c.7 0 1.1.1 1.3.4.2.3.4.7.6 1.4.6-.1 1.2-.2 2-.2s1.3.1 1.6.3c.3.2.5.7.5 1.3v.9c-.1.9-.5 3.3-1.1 7.1-.1.7-.2 1.5-.4 2.4-.1.9-.3 1.8-.4 2.7 2.3-1.8 4.5-3.4 6.7-4.8.4-.2.7-.4 1-.4.2 0 .6.2.8.6zm-18 22.8c.9-1.8 1.9-4.7 2.7-8.6-2.3 2-4 3.8-5 5.4-1 1.6-1.5 3-1.5 4.2 0 .5.1.9.3 1.3.2.3.5.5 1 .5.7-.1 1.5-1 2.5-2.8zm3.1-19c.6-.8 1.1-2 1.4-3.6l1.4-7.7c-1.2 0-2.4.5-3.4 1.4-1.1.9-1.9 2.1-2.5 3.6-.6 1.5-.9 3.1-.9 4.8 0 .9.2 1.6.6 2.1.4.5.9.7 1.6.7.6 0 1.2-.5 1.8-1.3z"/>
    <path class="st19" d="M388.1 231.2c-.9-1.4-1.3-3.2-1.3-5.5 0-1.4.2-3.1.5-5.2s.8-4.1 1.3-5.9c.3-1 .6-1.6 1.1-2 .5-.4 1.2-.5 2.2-.5 1.5 0 2.3.5 2.3 1.5 0 .8-.3 2.5-.9 5.2-.7 3.3-1.1 5.5-1.1 6.7 0 .9.1 1.6.4 2.1.2.5.6.7 1.2.7.5 0 1.2-.4 2-1.1.8-.7 1.9-1.9 3.2-3.6.4-.4.8-.6 1.2-.6.4 0 .7.2.9.5.2.4.3.9.3 1.5 0 1.2-.3 2.1-.9 2.8-3 3.6-5.7 5.4-8.3 5.4-1.8.1-3.3-.6-4.1-2zm1.7-23c-.6-.6-.9-1.4-.9-2.5s.4-1.9 1.2-2.6c.8-.7 1.9-1.1 3.1-1.1 1.1 0 2 .3 2.7.8s1 1.3 1 2.3c0 1.2-.4 2.2-1.2 2.9-.8.7-1.8 1.1-3.1 1.1-1.2 0-2.1-.3-2.8-.9z"/>
    <path class="st19" d="M398.6 231.5c-.5-1.2-.7-3.1-.7-5.8 0-3.9.6-7.6 1.7-11.1.3-.9.7-1.5 1.3-1.9s1.5-.6 2.6-.6c.6 0 1 .1 1.3.2s.4.4.4.9-.2 1.6-.7 3.2c-.3 1.2-.5 2.3-.7 3.2-.2.9-.3 2-.5 3.3 1-2.6 2.1-4.7 3.3-6.3s2.4-2.8 3.6-3.5c1.2-.7 2.3-1 3.3-1 2 0 2.9 1 2.9 2.9 0 .4-.1 1.3-.4 2.8-.2 1.2-.4 2-.4 2.3 0 1.1.4 1.6 1.1 1.6.8 0 1.9-.7 3.2-2 .4-.4.8-.6 1.2-.6.4 0 .7.2.9.5.2.3.3.8.3 1.4 0 1.1-.3 2-.9 2.6-.8.9-1.8 1.6-2.9 2.2-1.1.6-2.3.9-3.6.9-1.6 0-2.8-.4-3.6-1.2-.8-.8-1.2-1.9-1.2-3.3 0-.5 0-.9.1-1.4.1-.6.1-1 .1-1.2 0-.5-.2-.7-.5-.7-.5 0-1 .5-1.8 1.5-.7 1-1.5 2.3-2.2 4-.7 1.7-1.3 3.4-1.8 5.2-.3 1.4-.7 2.4-1.1 2.9-.4.5-1.1.7-2 .7-1 .1-1.8-.5-2.3-1.7z"/>
    <path class="st19" d="M418.2 232.7c-.4-.4-.5-1-.5-1.8 0-.2 0-.7.1-1.3.5-5.5 1.3-10.5 2.4-15 .2-.9.6-1.6 1.2-2 .6-.4 1.4-.6 2.7-.6 1.3 0 1.9.5 1.9 1.6 0 .2 0 .4-.1.9-1.4 6.4-2.2 11.8-2.4 16.2-.1 1-.3 1.6-.9 2-.5.4-1.3.6-2.4.6-.9 0-1.6-.2-2-.6zm3.5-24.5c-.6-.6-.9-1.4-.9-2.5s.4-1.9 1.2-2.6c.8-.7 1.9-1.1 3.1-1.1 1.1 0 2 .3 2.7.8.7.5 1 1.3 1 2.3 0 1.2-.4 2.2-1.2 2.9-.8.7-1.8 1.1-3.1 1.1-1.2 0-2.2-.3-2.8-.9z"/>
  </g>
</svg>
